<svg xmlns="http://www.w3.org/2000/svg" xmlns:xlink="http://www.w3.org/1999/xlink" version="1.1" width="443.831" height="126.56" viewBox="0 0 443.831 126.56">
<defs>
<clipPath id="clip_0">
<path transform="matrix(1,0,0,-1,0,126.56)" d="M0 126.56H443.831V0H0Z"/>
</clipPath>
</defs>
<g id="layer_1" data-name="Layer 1">
<g clip-path="url(#clip_0)">
<path transform="matrix(1,0,0,-1,174.9349,94.5691)" d="M0 0C-7.501 0-10.301 4.4-10.301 10.301V48.203H-17.901C-18.602 48.203-18.602 49.403-18.602 50.403-18.602 51.403-18.602 52.703-17.901 52.703H-10.301V65.805C-10.301 66.404-8.601 66.404-7.601 66.404-6.601 66.404-4.9 66.404-4.9 65.805V52.703H6.9C7.5 52.703 7.5 51.604 7.5 50.403 7.5 49.203 7.5 48.203 6.9 48.203H-4.9V10.501C-4.9 6.301-3.101 4.7 1.3 4.7H6.8C7.5 4.7 7.7 4.501 7.7 2.5 7.7 .3 7.5 0 6.8 0Z" fill="#231f20"/>
<path transform="matrix(1,0,0,-1,225.0355,59.866998)" d="M0 0C0 10.701-6.9 15.901-15.102 15.901-23.002 15.901-29.603 10.701-29.603 .3V-5.9H0ZM-29.603-10.301V-15.501C-29.603-25.102-24.502-31.002-14.201-31.002-6.4-31.002-1.7-28.901 2.2-26.802 3-26.401 5.5-30.701 4.5-31.302-.601-34.202-6.9-35.902-14.001-35.902-27.202-35.902-35.003-28.502-35.003-15.9V.601C-35.003 12.801-26.402 20.602-15.102 20.602-2.9 20.602 5.4 12.801 5.4-.5V-10.301Z" fill="#231f20"/>
<path transform="matrix(1,0,0,-1,252.8343,94.5691)" d="M0 0C-7.4 0-10.301 4.4-10.301 10.301V74.305C-10.301 74.905-8.601 74.905-7.601 74.905-6.601 74.905-4.9 74.905-4.9 74.305V10.501C-4.9 6.301-3 4.601 1.399 4.601H4.1C4.8 4.601 5 4.4 5 2.4 5 .2 4.8 0 4.1 0Z" fill="#231f20"/>
<path transform="matrix(1,0,0,-1,299.2347,59.866998)" d="M0 0C0 10.701-6.9 15.901-15.102 15.901-23.002 15.901-29.603 10.701-29.603 .3V-5.9H0ZM-29.603-10.301V-15.501C-29.603-25.102-24.502-31.002-14.201-31.002-6.4-31.002-1.7-28.901 2.2-26.802 3-26.401 5.5-30.701 4.5-31.302-.601-34.202-6.9-35.902-14.001-35.902-27.202-35.902-35.003-28.502-35.003-15.9V.601C-35.003 12.801-26.402 20.602-15.102 20.602-2.9 20.602 5.4 12.801 5.4-.5V-10.301Z" fill="#231f20"/>
<path transform="matrix(1,0,0,-1,352.6341,94.9685)" d="M0 0C-1 0-2.7 0-2.7 .6V37.302C-2.7 46.202-6.601 50.303-13.101 50.303-20.001 50.303-26.401 44.402-30.302 38.702V.6C-30.302 0-32.002 0-33.002 0-34.002 0-35.702 0-35.702 .6V54.403C-35.702 55.003-34.002 55.003-33.002 55.003-32.002 55.003-30.402 55.003-30.402 54.403V44.702C-26.102 50.803-19.501 55.703-11.501 55.703-2.801 55.703 2.7 49.203 2.7 39.702V.6C2.7 0 1 0 0 0" fill="#231f20"/>
<path transform="matrix(1,0,0,-1,387.6312,44.165796)" d="M0 0C-9.601 0-15.401-4.101-15.401-15.501V-31.202C-15.401-42.503-9.601-46.803 0-46.803 9.7-46.803 15.601-42.702 15.601-31.202V-15.501C15.601-4.2 9.7 0 0 0M-20.802-32.102V-14.601C-20.802-2-13.201 4.9 0 4.9 13.301 4.9 21.001-2 21.001-14.601V-32.102C21.001-44.603 13.301-51.604 0-51.604-13.201-51.604-20.802-44.603-20.802-32.102" fill="#231f20"/>
<path transform="matrix(1,0,0,-1,439.8314,45.765398)" d="M0 0C-4.4 0-8.101-4.001-13.602-12.401V-48.604C-13.602-49.203-15.302-49.203-16.302-49.203-17.302-49.203-18.901-49.203-18.901-48.604V5.2C-18.901 5.8-17.302 5.8-16.302 5.8-15.302 5.8-13.802 5.8-13.802 5.2V-6.901C-7.801 2.199-4.601 5.6 1.399 5.6H3.399C4 5.6 4 3.7 4 2.699 4 1.699 3.8 0 3.2 0Z" fill="#231f20"/>
<path transform="matrix(1,0,0,-1,68.4076,39.7556)" d="M0 0C1.904-.293 2.29 .093 2.542 1.897 2.955 4.649 3.939 9.289 6.241 14.045 8.732 19.174 12.7 24.81 18.249 28.584 22.923 31.721 30.584 35.195 36.515 36.456 41.366 37.501 45.912 37.701 49.812 37.339 57.827 36.618 62.261 34.33 64.487 31.369 65.312 30.263 65.764 28.899 65.782 28.015 65.846 26.543 65.203 24.621 63.09 22.734 61.034 20.917 56.648 18.618 50.666 16.604 44.457 14.535 35.972 12.349 27.514 10.401 20.432 8.768 16.403 7.378 13.038 6.237 7.442 4.337 5.755-1.239 9.243-2.942 14.283-5.402 17.435-7.975 20.122-10.163 24.152-13.472 28.832-17.365 34.642-24.388 39.906-30.827 48.518-43.116 51.617-55.046 55.047-68.143 52.904-80.563 45.504-84.03 38.248-87.438 28.58-82.522 21.792-75.474 15.335-68.785 10.828-60.907 6.591-48.755 2.916-38.31 1.426-23.162 1.432-15.238 1.432-12.599 1.389-12.035 1.496-9.652 1.742-7.575-3.851-5.856-9.862-9.729-16.702-14.136-23.404-22.124-27.36-26.762-29.082-28.787-31.414-31.762-33.887-34.883-37.146-38.977-40.743-43.239-44.023-45.622-48.958-49.224-56.888-50.714-62.442-46.746-65.53-44.536-67.174-40.363-67.225-36.121-67.271-33.134-66.531-30.432-65.042-27.768-63.182-24.494-60.118-20.983-55.262-16.961-50.24-12.829-42.224-8.155-34.19-4.923-21.937 .016-8.743 1.57 0 0" fill="#00aeef"/>
</g>
</g>
</svg>
